<svg  xmlns="http://www.w3.org/2000/svg">
<symbol id='icon-1'><path d="M15 22.75H9c-5.43 0-7.75-2.32-7.75-7.75V9c0-5.43 2.32-7.75 7.75-7.75h6c5.43 0 7.75 2.32 7.75 7.75v6c0 5.43-2.32 7.75-7.75 7.75Zm-6-20C4.39 2.75 2.75 4.39 2.75 9v6c0 4.61 1.64 6.25 6.25 6.25h6c4.61 0 6.25-1.64 6.25-6.25V9c0-4.61-1.64-6.25-6.25-6.25H9Z" />
<path d="M12.0006 13.0797c-.13 0-.26-.03-.38-.1l-5.29999-3.06c-.36-.21-.48002-.67-.27002-1.02.21-.36.67002-.48 1.02002-.27l4.91999 2.85 4.89-2.83c.36-.21.82-.08 1.02.27.2.35.08.82-.27 1.02l-5.26 3.04c-.11.06-.24.1-.37.1Z" />
<path d="M12 18.5201c-.41 0-.75-.34-.75-.75v-5.44c0-.41.34-.75.75-.75s.75.34.75.75v5.44c0 .41-.34.75-.75.75Z" />
<path d="M12.0002 18.7498c-.58 0-1.1499-.13-1.6099-.38l-3.20005-1.78c-.96-.53-1.70002-1.8-1.70002-2.9v-3.39c0-1.08999.75002-2.36 1.70002-2.9l3.20005-1.78c.92-.51 2.2999-.51 3.2199 0l3.2 1.78c.96.53 1.7001 1.80001 1.7001 2.9v3.39c0 1.09-.7501 2.36-1.7001 2.9l-3.2 1.78c-.46.26-1.03.38-1.61.38Zm0-12c-.33 0-.65.06-.88.19l-3.19994 1.78c-.49.27-.93003 1.03-.93003 1.58v3.39c0 .56.44003 1.31.93003 1.58l3.19994 1.78c.46.26 1.3.26 1.76 0l3.2-1.78c.49-.27.9301-1.03.9301-1.58v-3.39c0-.55999-.4401-1.31-.9301-1.58l-3.2-1.78c-.23-.13-.55-.19-.88-.19Z" /></symbol>

<symbol id="icon-2"><path d="m6 12 4-4-4-4" stroke="#9197B3" stroke-width="2" stroke-linecap="round" stroke-linejoin="round"/></symbol>

<symbol id='icon-3'><path d="M12 22.7503c-.63 0-1.22-.2399-1.66-.6899l-1.51999-1.52c-.12-.12-.44001-.25-.60001-.25H6.06c-1.3 0-2.35001-1.0501-2.35001-2.3501v-2.1599c0-.16-.13-.48-.25-.6L1.94 13.6604c-.44-.44-.69-1.0301-.69-1.6601 0-.63.24-1.22.69-1.66l1.51999-1.52002c.12-.12.25-.43998.25-.59998V6.06039c0-1.3 1.05001-2.3501 2.35001-2.3501h2.16c.16 0 .48001-.13.60001-.25L10.34 1.94027c.88-.88 2.44-.88 3.32 0l1.52 1.52002c.12.12.44.25.6.25h2.16c1.3 0 2.35 1.0501 2.35 2.3501V8.2203c0 .16.13.47998.25.59998l1.52 1.52002c.44.44.69 1.03.69 1.66 0 .63-.24 1.2201-.69 1.6601l-1.52 1.52c-.12.12-.25.44-.25.6v2.1599c0 1.3-1.05 2.3501-2.35 2.3501h-2.16c-.16 0-.48.13-.6.25l-1.52 1.52c-.44.45-1.03.6899-1.66.6899Zm-7.48001-8.63c.4.4.69 1.1001.69 1.6601v2.1599c0 .47.38001.8501.85001.8501h2.16c.56 0 1.26001.2899 1.66.6899l1.52 1.52c.32.32.88.32 1.2 0l1.52-1.52c.4-.4 1.1-.6899 1.66-.6899h2.16c.47 0 .85-.3801.85-.8501v-2.1599c0-.56.29-1.2601.69-1.6601l1.52-1.52c.16-.16.25-.37.25-.6 0-.23-.09-.4399-.25-.5999l-1.52-1.52006c-.4-.4-.69-1.10004-.69-1.66004V6.06039c0-.47-.38-.8501-.85-.8501h-2.16c-.56 0-1.26-.28994-1.66-.68994L12.6 3.00033c-.32-.32-.88-.32-1.2 0L9.88 4.52035c-.39999.4-1.1.68994-1.66.68994H6.06c-.47 0-.85001.3801-.85001.8501V8.2203c0 .56-.29 1.26004-.69 1.66004L3 11.4004c-.16.16-.25.3699-.25.5999 0 .23.09.44.25.6l1.51999 1.52Z" />
<path d="M15.0002 16c-.56 0-1.01-.45-1.01-1s.45-1 1-1 1 .45 1 1-.44 1-.99 1Z" />
<path d="M9.01001 10C8.45001 10 8 9.55 8 9s.45-1 1-1 1 .45 1 1-.43999 1-.98999 1Z" />
<path d="M8.99945 15.7495c-.19 0-.38-.07-.53-.22-.29-.29-.29-.77 0-1.06l6.00005-6.00005c.29-.29.77-.29 1.06 0 .29.29.29.77006 0 1.06006L9.52945 15.5295c-.15.15-.34.22-.53.22Z" /></symbol>

<symbol id='icon-4'><g stroke="#9197B3" stroke-linecap="round" stroke-linejoin="round"><path d="M9 22h6c5 0 7-2 7-7V9c0-5-2-7-7-7H9C4 2 2 4 2 9v6c0 5 2 7 7 7Z" stroke-width="1.5"/><path d="M16.28 13.61c-1.13 1.13-2.75 1.48-4.18 1.03l-2.58999 2.58c-.18.19-.55.31-.82.27l-1.2-.16c-.4-.05-.76-.43-.82-.82l-.16-1.2c-.04-.26.09-.63.27-.82l2.58-2.58c-.44-1.43-.1-3.04999 1.02999-4.17999 1.62-1.62 4.26-1.62 5.89 0 1.62 1.61 1.62 4.24999 0 5.87999Z" stroke-width="1.5" stroke-miterlimit="10"/><path d="m10.45 16.28-.85002-.86" stroke-width="1.5" stroke-miterlimit="10"/><path d="M13.3945 10.7h.009" stroke-width="2"/></g></symbol>

<symbol id='icon-5'><path d="M8 22.3199c-.28 0-.57002-.07-.83002-.21-.57-.3-.91998-.9-.91998-1.54V19.15c-3.02-.31-5-2.5301-5-5.7101V7.43994c0-3.44 2.31-5.75 5.75-5.75h10c3.44 0 5.75 2.31 5.75 5.75v5.99996c0 3.44-2.31 5.75-5.75 5.75h-3.77L8.96997 22.03c-.29.19-.62997.2899-.96997.2899ZM7 3.17993c-2.58 0-4.25 1.67-4.25 4.25V13.43c0 2.58 1.67 4.25 4.25 4.25.41 0 .75.34.75.75v2.13c0 .13.08.19.13.22.05001.03.15001.06.26001-.01L12.59 17.81c.12-.08.27-.13.42-.13h4c2.58 0 4.25-1.67 4.25-4.25V7.42993c0-2.58-1.67-4.25-4.25-4.25H7Z" /><path d="M11.9998 12.1099c-.41 0-.75-.34-.75-.75v-.21c0-1.16.85-1.73001 1.17-1.95001.37-.25.49-.41999.49-.67999 0-.5-.41-.91004-.91-.91004s-.91.41004-.91.91004c0 .41-.34.75-.75.75-.40996 0-.74996-.34-.74996-.75 0-1.33 1.07996-2.41004 2.40996-2.41004 1.33 0 2.41 1.08004 2.41 2.41004 0 1.14-.84 1.71-1.15 1.92-.39.26-.51.43-.51.71v.21c0 .42-.34.75-.75.75Z" /><path d="M12 14.6001c-.42 0-.75-.34-.75-.75s.34-.75.75-.75.75.34.75.75-.33.75-.75.75Z" /></symbol>

<symbol id='icon-6'><path d="M11 19C15.4183 19 19 15.4183 19 11C19 6.58172 15.4183 3 11 3C6.58172 3 3 6.58172 3 11C3 15.4183 6.58172 19 11 19Z" stroke="#7E7E7E" stroke-width="2" stroke-linecap="round"  stroke-linejoin="round" />
<path  d="M21 21L16.65 16.65" stroke="#7E7E7E" stroke-width="2" stroke-linecap="round" stroke-linejoin="round" /></symbol>

<symbol id='icon-7'><path d="M18.5003 34.8876c-1.0329 0-2.0813-.2312-2.8983-.7092l-8.47916-4.887c-3.45333-2.328-3.66917-2.6825-3.66917-6.3363v-8.9108c0-3.6538.20042-4.0084 3.59209-6.30543l8.54074-4.93334c1.6188-.94041 4.1625-.94041 5.7813 0l8.51 4.9025c3.4533 2.32787 3.6692 2.68247 3.6692 6.33627v8.8954c0 3.6537-.2005 4.0083-3.5921 6.3054l-8.5409 4.9333c-.8325.478-1.8808.7092-2.9137.7092Zm0-30.46332c-.6475 0-1.2796.12334-1.7267.38542L8.29451 9.7122c-2.51292 1.6958-2.51292 1.6958-2.51292 4.3321v8.8954c0 2.6362 0 2.6362 2.57458 4.3783l8.41743 4.8563c.9096.5241 2.5592.5241 3.4688 0l8.4791-4.9025c2.4975-1.6959 2.4975-1.6959 2.4975-4.3321v-8.8954c0-2.6363 0-2.6363-2.5745-4.37835L20.227 4.8097c-.4471-.26208-1.0792-.38542-1.7267-.38542Z" /><path d="M18.5 24.2812c-3.1912 0-5.7812-2.59-5.7812-5.7812 0-3.1912 2.59-5.7812 5.7812-5.7812 3.1912 0 5.7812 2.59 5.7812 5.7812 0 3.1912-2.59 5.7812-5.7812 5.7812Zm0-9.25c-1.9117 0-3.4688 1.5571-3.4688 3.4688s1.5571 3.4688 3.4688 3.4688 3.4688-1.5571 3.4688-3.4688-1.5571-3.4688-3.4688-3.4688Z" /></symbol>

<symbol id='icon-8'><path d="M15.0006 22.7498H9.00063C7.68063 22.7498 6.58063 22.6198 5.65063 22.3398C5.31063 22.2398 5.09063 21.9098 5.11063 21.5598C5.36063 18.5698 8.39063 16.2197 12.0006 16.2197C15.6106 16.2197 18.6306 18.5598 18.8906 21.5598C18.9206 21.9198 18.7006 22.2398 18.3506 22.3398C17.4206 22.6198 16.3206 22.7498 15.0006 22.7498ZM6.72063 21.0598C7.38063 21.1898 8.13063 21.2498 9.00063 21.2498H15.0006C15.8706 21.2498 16.6206 21.1898 17.2806 21.0598C16.7506 19.1398 14.5606 17.7197 12.0006 17.7197C9.44063 17.7197 7.25063 19.1398 6.72063 21.0598Z" fill="white"/>
<path d="M15 2H9C4 2 2 4 2 9V15C2 18.78 3.14 20.85 5.86 21.62C6.08 19.02 8.75 16.97 12 16.97C15.25 16.97 17.92 19.02 18.14 21.62C20.86 20.85 22 18.78 22 15V9C22 4 20 2 15 2ZM12 14.17C10.02 14.17 8.42 12.56 8.42 10.58C8.42 8.60002 10.02 7 12 7C13.98 7 15.58 8.60002 15.58 10.58C15.58 12.56 13.98 14.17 12 14.17Z" stroke="white" stroke-width="1.5" stroke-linecap="round" stroke-linejoin="round"/>
<path d="M11.9999 14.92C9.60992 14.92 7.66992 12.97 7.66992 10.58C7.66992 8.19002 9.60992 6.25 11.9999 6.25C14.3899 6.25 16.3299 8.19002 16.3299 10.58C16.3299 12.97 14.3899 14.92 11.9999 14.92ZM11.9999 7.75C10.4399 7.75 9.16992 9.02002 9.16992 10.58C9.16992 12.15 10.4399 13.42 11.9999 13.42C13.5599 13.42 14.8299 12.15 14.8299 10.58C14.8299 9.02002 13.5599 7.75 11.9999 7.75Z" fill="white"/>
</symbol>

<symbol id='icon-9'><path d="M10.7516 16.8604v2.03c0 1.72-1.60002 3.11-3.57002 3.11s-3.58002-1.39-3.58002-3.11v-2.03c0 1.72 1.60002 2.94 3.58002 2.94 1.97 0 3.57002-1.23 3.57002-2.94Z" stroke="#9197B3" stroke-width="1.5" stroke-linecap="round" stroke-linejoin="round"/><path d="M10.7501 14.11c0 .5-.14.96-.38 1.36-.59004.97-1.80006 1.58-3.20006 1.58-1.4 0-2.61001-.62-3.20001-1.58-.24-.4-.37994-.86-.37994-1.36 0-.86.39998-1.63 1.03998-2.19.65-.57 1.53996-.91 2.52996-.91s1.88003.35 2.53003.91c.66004.55 1.06004 1.33 1.06004 2.19Z" stroke="#9197B3" stroke-width="1.5" stroke-linecap="round" stroke-linejoin="round"/><path d="M10.7516 14.11v2.75c0 1.72-1.60002 2.94-3.57002 2.94s-3.58002-1.23-3.58002-2.94v-2.75c0-1.72 1.60002-3.11 3.58002-3.11.99 0 1.88003.35 2.53003.91.63999.56 1.03999 1.34 1.03999 2.2Z" stroke="#9197B3" stroke-width="1.5" stroke-linecap="round" stroke-linejoin="round"/><path d="M22 10.9699V13.03c0 .55-.44.9999-1 1.0199h-1.9601c-1.08 0-2.0699-.79-2.1599-1.87-.06-.63.1799-1.22.5999-1.63.37-.38.8801-.59995 1.4401-.59995H21c.56.02 1 .46995 1 1.01995Z" stroke="#9197B3" stroke-width="1.5" stroke-linecap="round" stroke-linejoin="round"/><path d="M2 10.5v-2c0-2.72 1.64-4.62 4.19-4.94.26-.04.53-.06.81-.06h9c.26 0 .51.00999.75.04999C19.33 3.84999 21 5.76 21 8.5v1.45001h-2.08c-.56 0-1.07.21999-1.44.59999-.42.41-.66 1-.6 1.63.09 1.08 1.08 1.87 2.16 1.87H21v1.45c0 3-2 5-5 5h-2.5" stroke="#9197B3" stroke-width="1.5" stroke-linecap="round" stroke-linejoin="round"/></symbol>
</svg>